<?xml version="1.0" encoding="utf-8"?>
<svg version="1.1" id="layer_1" xmlns="http://www.w3.org/2000/svg" xmlns:xlink="http://www.w3.org/1999/xlink" x="0px"
	 y="0px" viewBox="0 0 500 500" style="enable-background:new 0 0 500 500;" xml:space="preserve">
<style type="text/css">
	.st0{fill:#000;}
</style>
<path class="st0" d="M34.7,82l-5.1-11.9c0,0-1.4-8.7,0-10.4s4.8-5.1,6.2-5.3s32.6,0,32.6,0l298-0.2c0,0,5.2,1,7.3,4.7
	s1.5,8.2,1.5,8.5s-0.6,3-1.4,4.2s-10.1,13.9-10.1,13.9L116.5,421.9c0,0-1.6,4.3-7.8,9.6c-6.2,5.3-12.2,0.3-15.1-4.8
	c-2.9-5-34.3-65-34.3-65s-1.1-2.6-0.9-5.1c0.2-2.5,0.4-5.3,3.9-9.1c3.4-3.9,147.9-189.8,147.9-189.8s4.4-4.1,1.9-12.3
	c-2.6-8.1-14.1-7-14.1-7l-133.4,1.3c0,0-3.5-0.3-5.5-2.9C56.9,134.2,34.7,82,34.7,82z"/>
<path class="st0" d="M465.7,417.9l5.1,11.9c0,0,1.4,8.7,0,10.4c-1.4,1.7-4.8,5.1-6.2,5.3c-1.4,0.2-32.6,0-32.6,0l-298,0.2
	c0,0-5.2-1-7.3-4.7c-2.1-3.7-1.5-8.2-1.5-8.5c0-0.3,0.6-3,1.4-4.2c0.8-1.2,10.1-13.9,10.1-13.9L383.9,77.9c0,0,1.6-4.3,7.8-9.6
	c6.2-5.3,12.2-0.3,15.1,4.8c2.9,5,34.3,65,34.3,65s1.1,2.6,0.9,5.1c-0.2,2.5-0.4,5.3-3.9,9.1c-3.4,3.9-147.9,189.8-147.9,189.8
	s-4.4,4.1-1.9,12.3s14.1,7,14.1,7l133.4-1.3c0,0,3.5,0.3,5.5,2.9C443.5,365.7,465.7,417.9,465.7,417.9z"/>
</svg>
