<?xml version="1.0" encoding="utf-8"?>
<!-- Generator: Adobe Illustrator 24.3.0, SVG Export Plug-In . SVG Version: 6.00 Build 0)  -->
<svg version="1.1" id="레이어_1" xmlns="http://www.w3.org/2000/svg" xmlns:xlink="http://www.w3.org/1999/xlink" x="0px"
	 y="0px" viewBox="0 0 228 77" style="enable-background:new 0 0 228 77;" xml:space="preserve">
<style type="text/css">
	.st0{fill:none;stroke:#00AC46;stroke-width:3.5;stroke-miterlimit:10;}
</style>
<g>
	<path class="st0" d="M5.99,58.62l28.04-37.71H6.07V8.4H53.7v8.61L25.66,54.72h27.96v12.52H5.99V58.62z"/>
	<path class="st0" d="M61.74,8.4h42.02v12.52H77.18v10.65h24.38v12.52H77.18v10.65h26.49v12.52H61.74V8.4z"/>
	<path class="st0" d="M111.89,8.4h25.03c13.17,0,21.78,7.48,21.78,19.91c0,8.13-3.74,13.86-10.08,16.86l12.03,22.06h-16.82
		l-10.44-19.59h-6.05v19.59h-15.44V8.4z M133.34,35.54c5.81,0,9.22-2.11,9.18-7.23c0.04-5.2-3.37-7.52-9.18-7.56h-6.01v14.79H133.34
		z"/>
	<path class="st0" d="M193.81,68.05c-16.05,0-28.48-10.77-28.53-30.23c0.04-19.59,12.47-30.23,28.53-30.23
		c15.89,0,28.44,10.65,28.44,30.23C222.25,57.4,209.69,68.05,193.81,68.05z M193.81,54.56c8.05-0.04,12.56-5.93,12.52-16.74
		c0.04-10.85-4.47-16.74-12.52-16.74c-8.13,0-12.6,5.89-12.6,16.74C181.21,48.63,185.68,54.52,193.81,54.56z"/>
</g>
</svg>
